<svg width="573" height="255" viewBox="0 0 573 255" fill="none" xmlns="http://www.w3.org/2000/svg">
<path d="M397.979 44.4878C350.349 44.4878 312.496 75.6278 312.496 113.2C312.496 150.772 350.349 181.912 397.979 181.912C445.609 181.912 483.462 150.771 483.462 113.2C483.462 75.6279 445.609 44.4879 397.979 44.4878Z" fill="#FFFBF9" stroke="#93A7C8" stroke-width="4"/>
<path d="M299.739 2C252.109 2 214.256 33.14 214.256 70.7119C214.256 108.284 252.109 139.424 299.739 139.424C347.369 139.424 385.223 108.284 385.223 70.7119C385.223 33.1401 347.369 2.00009 299.739 2Z" fill="#FFFBF9" stroke="#93A7C8" stroke-width="4"/>
<path d="M174.608 19.6016C122.424 19.6018 80.8784 53.7308 80.8784 94.9902C80.8786 136.25 122.424 170.378 174.608 170.378C226.792 170.378 268.338 136.25 268.338 94.9902C268.338 53.7307 226.792 19.6016 174.608 19.6016Z" fill="#FFFBF9" stroke="#93A7C8" stroke-width="4"/>
<path d="M485.176 114.904C437.546 114.904 399.692 146.044 399.692 183.616C399.692 221.188 437.546 252.328 485.176 252.328C532.806 252.328 570.659 221.187 570.659 183.616C570.659 146.044 532.806 114.904 485.176 114.904Z" fill="#FFFBF9" stroke="#93A7C8" stroke-width="4"/>
<path d="M87.4834 114.896C39.8535 114.896 2 146.036 2 183.608C2.0001 221.18 39.8535 252.32 87.4834 252.32C135.113 252.32 172.967 221.18 172.967 183.608C172.967 146.036 135.113 114.896 87.4834 114.896Z" fill="#FFFBF9" stroke="#93A7C8" stroke-width="4"/>
<rect x="-2" y="2" width="387.525" height="125.891" transform="matrix(-1 0 0 1 477.16 124.428)" fill="#FFFBF9" stroke="#93A7C8" stroke-width="4"/>
<ellipse cx="84.6058" cy="67.3735" rx="84.6058" ry="67.3735" transform="matrix(-1 0 0 1 479.604 48.9082)" fill="#FFFBF9"/>
<ellipse cx="84.6058" cy="67.3735" rx="84.6058" ry="67.3735" transform="matrix(-1 0 0 1 384.597 8.42578)" fill="#FFFBF9"/>
<ellipse cx="92.581" cy="73.7349" rx="92.581" ry="73.7349" transform="matrix(-1 0 0 1 271.557 25.1973)" fill="#FFFBF9"/>
<ellipse cx="84.6058" cy="67.3735" rx="84.6058" ry="67.3735" transform="matrix(-1 0 0 1 564.376 116.338)" fill="#FFFBF9"/>
<ellipse cx="84.6058" cy="67.3735" rx="84.6058" ry="67.3735" transform="matrix(-1 0 0 1 179.323 115.992)" fill="#FFFBF9"/>
<rect width="378.646" height="123.759" transform="matrix(-1 0 0 1 475.444 126.98)" fill="#FFFBF9"/>
</svg>
