<svg width="582" height="229" viewBox="0 0 582 229" fill="none" xmlns="http://www.w3.org/2000/svg">
<path d="M179.554 40.1548C203.744 40.1548 225.56 47.1587 241.277 58.3813C256.999 69.6069 266.488 84.9343 266.488 101.656C266.488 118.377 256.999 133.705 241.277 144.93C225.56 156.153 203.744 163.157 179.554 163.157C155.364 163.157 133.548 156.153 117.83 144.93C102.109 133.705 92.6191 118.377 92.6191 101.656C92.6192 84.9343 102.109 69.6069 117.83 58.3813C133.548 47.1588 155.364 40.1548 179.554 40.1548Z" fill="#FFFBF9" stroke="#9C66A5" stroke-width="4"/>
<path d="M279.423 2C303.613 2.00002 325.429 9.00393 341.146 20.2266C356.868 31.4521 366.357 46.7795 366.357 63.501C366.357 80.2224 356.868 95.5499 341.146 106.775C325.429 117.998 303.613 125.002 279.423 125.002C255.233 125.002 233.417 117.998 217.699 106.775C201.978 95.5499 192.488 80.2224 192.488 63.501C192.488 46.7795 201.978 31.4521 217.699 20.2266C233.417 9.00397 255.233 2 279.423 2Z" fill="#FFFBF9" stroke="#9C66A5" stroke-width="4"/>
<path d="M406.628 17.8071C433.133 17.8071 457.046 25.4818 474.28 37.7896C491.519 50.1 501.945 66.927 501.945 85.3042C501.945 103.681 491.519 120.507 474.28 132.818C457.046 145.126 433.133 152.801 406.628 152.801C380.123 152.801 356.211 145.126 338.977 132.818C321.738 120.507 311.311 103.681 311.311 85.3042C311.311 66.9269 321.738 50.1 338.977 37.7896C356.211 25.4819 380.123 17.8072 406.628 17.8071Z" fill="#FFFBF9" stroke="#9C66A5" stroke-width="4"/>
<path d="M88.9346 103.108C113.124 103.108 134.941 110.112 150.658 121.334C166.38 132.56 175.869 147.887 175.869 164.609C175.869 181.33 166.38 196.658 150.658 207.883C134.941 219.106 113.124 226.11 88.9346 226.11C64.7448 226.11 42.9286 219.106 27.2109 207.883C11.4894 196.658 2 181.33 2 164.609C2.00002 147.887 11.4894 132.56 27.2109 121.334C42.9286 110.112 64.7448 103.108 88.9346 103.108Z" fill="#FFFBF9" stroke="#9C66A5" stroke-width="4"/>
<path d="M492.524 103.951C516.714 103.951 538.53 110.955 554.248 122.177C569.97 133.403 579.459 148.73 579.459 165.452C579.459 182.173 569.97 197.501 554.248 208.726C538.53 219.949 516.714 226.953 492.524 226.953C468.335 226.953 446.518 219.949 430.801 208.726C415.079 197.501 405.59 182.173 405.59 165.452C405.59 148.73 415.079 133.403 430.801 122.177C446.518 110.955 468.335 103.951 492.524 103.951Z" fill="#FFFBF9" stroke="#9C66A5" stroke-width="4"/>
<rect x="96.9932" y="113.74" width="394.018" height="112.646" fill="#FFFBF9" stroke="#9C66A5" stroke-width="4"/>
<path d="M258.149 105.384C258.149 137.628 221.627 163.767 176.575 163.767C131.522 163.767 95 137.628 95 105.384C95 73.1393 152.448 43 197.5 43C242.552 43 258.149 73.1393 258.149 105.384Z" fill="#FFFBF9"/>
<ellipse cx="292.669" cy="71.8647" rx="81.5746" ry="58.3837" fill="#FFFBF9"/>
<ellipse cx="409.348" cy="91.9105" rx="89.264" ry="63.8964" fill="#FFFBF9"/>
<ellipse cx="99.2685" cy="166.232" rx="81.5746" ry="58.3837" fill="#FFFBF9"/>
<ellipse cx="490.588" cy="165.078" rx="81.5746" ry="58.3837" fill="#FFFBF9"/>
<rect x="123.857" y="116.274" width="385.053" height="108.691" fill="#FFFBF9"/>
</svg>
