<svg width="395" height="340" viewBox="0 0 395 340" fill="none" xmlns="http://www.w3.org/2000/svg">
<path d="M42.0736 184.657L36.7049 175.15C36.5395 174.838 36.3965 174.592 36.276 174.414C36.1554 174.235 35.9147 174.079 35.5539 173.947L34.6318 173.616C34.435 173.544 34.2833 173.528 34.1767 173.569C34.0687 173.595 33.9298 173.708 33.7601 173.909L32.6782 175.184C32.4872 175.41 32.332 175.517 32.2123 175.506C32.0998 175.486 31.9234 175.382 31.6832 175.192L30.5638 174.307C30.2465 174.056 30.0732 173.864 30.044 173.729C30.0147 173.595 30.1239 173.382 30.3714 173.09L36.4387 165.935C36.6155 165.727 36.7862 165.576 36.9508 165.483C37.1154 165.391 37.3135 165.436 37.5451 165.619L38.7803 166.595C39.0634 166.819 39.2132 167.014 39.2298 167.18C39.2534 167.338 39.1486 167.555 38.9152 167.83L38.3318 168.518C38.0631 168.835 37.9355 169.061 37.9491 169.197C37.9697 169.325 38.1319 169.446 38.4357 169.561L49.265 173.795C49.5602 173.903 49.8784 174.043 50.2196 174.215C50.5607 174.387 50.8633 174.529 51.1272 174.64C51.3897 174.736 51.5527 174.747 51.6163 174.671C51.6658 174.613 51.6682 174.517 51.6233 174.385C51.5855 174.243 51.4776 174.033 51.2996 173.753L44.2341 162.8C44.0474 162.513 43.912 162.343 43.8277 162.29C43.7349 162.231 43.5329 162.385 43.2217 162.752L42.108 164.065C41.8958 164.315 41.7236 164.45 41.5914 164.471C41.4576 164.477 41.2535 164.371 40.979 164.154L39.8596 163.27C39.5593 163.032 39.3989 162.85 39.3783 162.722C39.3491 162.588 39.4547 162.379 39.6951 162.095L45.1578 155.654C45.377 155.395 45.5591 155.24 45.704 155.187C45.8403 155.128 46.0457 155.206 46.3202 155.423L47.6326 156.461C47.8814 156.657 48.004 156.817 48.0004 156.939C48.0038 157.053 47.8995 157.236 47.6874 157.486L46.3296 159.087C46.0609 159.404 45.9419 159.637 45.9726 159.786C45.9948 159.929 46.0898 160.13 46.2578 160.388L57.8414 178.38C57.9751 178.611 58.0315 178.781 58.0108 178.89C57.99 178.999 57.8665 179.186 57.6402 179.453L56.5583 180.729C56.3178 181.013 56.1265 181.154 55.9841 181.153C55.8574 181.15 55.655 181.102 55.3769 181.007L43.4755 176.719C43.1318 176.601 42.7566 176.444 42.3499 176.248C41.9431 176.051 41.5722 175.897 41.237 175.786C40.9004 175.659 40.6861 175.65 40.5942 175.758C40.4811 175.892 40.5589 176.197 40.8277 176.674L48.0155 189.688C48.1593 189.94 48.2414 190.131 48.2621 190.258C48.2984 190.385 48.1786 190.61 47.9028 190.936L46.8739 192.149C46.6052 192.466 46.3976 192.643 46.2512 192.68C46.1119 192.709 45.8911 192.674 45.5888 192.575L24.9563 185.481C24.6212 185.369 24.3804 185.332 24.234 185.37C24.079 185.4 23.853 185.591 23.556 185.941L22.3468 187.367C22.1488 187.601 21.9915 187.727 21.8749 187.746C21.7582 187.765 21.5798 187.68 21.3397 187.49L20.0659 186.484C19.7742 186.253 19.6337 186.072 19.6444 185.942C19.6536 185.796 19.7713 185.589 19.9976 185.322L27.0513 177.005C27.2918 176.721 27.5001 176.551 27.6763 176.496C27.8439 176.433 28.0864 176.527 28.4038 176.778L29.5489 177.683C29.8148 177.893 29.9503 178.063 29.9553 178.192C29.9602 178.322 29.8531 178.516 29.6339 178.774L28.6899 179.887C28.4424 180.179 28.314 180.398 28.3049 180.544C28.3028 180.682 28.4494 180.804 28.7446 180.912L39.786 184.897C40.1211 185.008 40.4678 185.157 40.8261 185.343C41.1829 185.513 41.5047 185.649 41.7913 185.75C42.0694 185.845 42.2509 185.842 42.3357 185.742C42.4206 185.642 42.4348 185.507 42.3784 185.337C42.329 185.158 42.2274 184.932 42.0736 184.657Z" fill="#442F2C"/>
<path d="M76.7128 131.119L74.8031 132.173C74.535 132.321 74.3405 132.372 74.2195 132.327C74.1081 132.276 73.9715 132.127 73.8095 131.881L72.883 130.468C72.7091 130.203 72.6473 130.019 72.6974 129.917C72.7512 129.8 72.9025 129.673 73.1514 129.536L92.0764 119.092C92.3827 118.923 92.6011 118.859 92.7317 118.899C92.8562 118.93 93.0115 119.087 93.1974 119.37L97.1823 125.445C97.3382 125.683 97.4228 125.842 97.4361 125.921C97.4433 125.992 97.3177 126.099 97.0593 126.241L95.408 127.153C95.1974 127.269 95.0382 127.294 94.9304 127.229C94.8225 127.164 94.7069 127.048 94.5833 126.879C93.883 125.871 93.2104 125.134 92.5658 124.668C91.9211 124.202 91.218 124.005 90.4566 124.076C89.6988 124.134 88.7886 124.455 87.726 125.042L82.8584 127.728C82.5903 127.876 82.4229 128.018 82.356 128.154C82.2927 128.277 82.354 128.479 82.5399 128.763L85.9131 133.905C86.087 134.17 86.2357 134.337 86.3591 134.406C86.4825 134.475 86.659 134.446 86.8888 134.319L87.8939 133.764C88.8416 133.242 89.3976 132.598 89.562 131.835C89.7299 131.058 89.6201 130.284 89.2325 129.515C89.1293 129.298 89.0746 129.135 89.0685 129.026C89.0624 128.917 89.1455 128.815 89.3178 128.72L90.3517 128.15C90.591 128.018 90.7651 127.965 90.8741 127.992C90.9927 128.014 91.1269 128.139 91.2768 128.368L96.0443 135.636C96.1943 135.864 96.2645 136.031 96.255 136.136C96.2456 136.241 96.1212 136.359 95.8819 136.491L94.8624 137.054C94.6709 137.159 94.5195 137.187 94.4081 137.136C94.2907 137.076 94.1409 136.947 93.9587 136.749C93.5894 136.306 93.1436 135.954 92.6213 135.694C92.1085 135.429 91.5606 135.29 90.9775 135.275C90.404 135.256 89.8348 135.402 89.27 135.713L88.2793 136.26C88.0591 136.381 87.9341 136.519 87.9044 136.672C87.8842 136.82 87.961 137.027 88.1349 137.292L91.823 142.914C92.0089 143.198 92.1582 143.346 92.2707 143.358C92.3869 143.357 92.5981 143.271 92.9044 143.102L97.5136 140.559C98.7485 139.877 99.605 139.205 100.083 138.543C100.565 137.866 100.715 137.111 100.533 136.278C100.355 135.43 99.8887 134.411 99.1343 133.221C98.97 132.95 98.8877 132.765 98.8876 132.666C98.8875 132.566 99.0167 132.445 99.2751 132.303L100.768 131.479C101.017 131.341 101.192 131.289 101.291 131.321C101.394 131.339 101.526 131.471 101.688 131.718L106.213 138.616C106.369 138.853 106.436 139.015 106.415 139.102C106.387 139.179 106.249 139.287 106 139.424L86.6444 150.105C86.3955 150.242 86.2112 150.319 86.0915 150.336C85.9813 150.346 85.8423 150.224 85.6744 149.968L84.559 148.268C84.421 148.057 84.3766 147.92 84.4256 147.856C84.4686 147.782 84.5954 147.687 84.806 147.571L86.7445 146.501C87.0795 146.316 87.2595 146.173 87.2846 146.073C87.3036 145.962 87.2112 145.752 87.0073 145.441L77.7331 131.303C77.5652 131.047 77.4202 130.915 77.298 130.908C77.1855 130.896 76.9904 130.966 76.7128 131.119Z" fill="#442F2C"/>
<path d="M122.008 108.2L119.701 108.775C119.488 108.828 119.335 108.833 119.239 108.789C119.151 108.733 119.066 108.585 118.984 108.348L118.389 106.61C118.294 106.33 118.271 106.145 118.32 106.054C118.366 105.953 118.527 105.868 118.803 105.799L130.037 102.999C130.324 102.928 130.527 102.917 130.648 102.965C130.764 103.004 130.872 103.167 130.971 103.457L131.545 105.133C131.644 105.422 131.653 105.617 131.572 105.716C131.498 105.801 131.328 105.877 131.063 105.943L128.66 106.542C128.384 106.611 128.205 106.695 128.124 106.794C128.05 106.88 128.06 107.062 128.156 107.341L133.659 123.416C133.758 123.706 133.864 123.881 133.978 123.943C134.101 124.002 134.312 123.994 134.609 123.92L138.81 122.873C140.115 122.548 141.101 122.1 141.77 121.529C142.445 120.946 142.828 120.182 142.92 119.239C143.022 118.293 142.846 117.107 142.393 115.682C142.322 115.442 142.292 115.286 142.303 115.216C142.32 115.133 142.456 115.06 142.711 114.997L144.302 114.6C144.536 114.542 144.704 114.528 144.806 114.559C144.919 114.587 145.015 114.714 145.093 114.942L147.85 122.995C147.956 123.305 147.995 123.52 147.967 123.639C147.935 123.748 147.76 123.842 147.442 123.922L126.834 129.057C126.558 129.126 126.36 129.136 126.24 129.088C126.12 129.039 126.01 128.87 125.911 128.58L125.305 126.812C125.238 126.615 125.213 126.475 125.231 126.392C125.255 126.296 125.363 126.224 125.554 126.177L127.83 125.61C128.159 125.528 128.357 125.434 128.424 125.327C128.502 125.218 128.486 125.003 128.376 124.682L122.91 108.716C122.811 108.427 122.71 108.25 122.607 108.185C122.505 108.121 122.305 108.126 122.008 108.2Z" fill="#442F2C"/>
<path d="M168.977 107.61C168.863 105.788 169.091 104.105 169.661 102.563C170.242 101.009 171.092 99.6654 172.212 98.5317C173.342 97.3872 174.68 96.5065 176.226 95.8896C177.782 95.2619 179.473 94.9573 181.299 94.9758C182.665 94.9896 183.893 95.231 184.982 95.7C186.082 96.1582 187.036 96.7458 187.846 97.4629C188.11 97.6727 188.296 97.7673 188.404 97.7466C188.523 97.726 188.665 97.5529 188.831 97.2275L189.342 95.7114C189.411 95.5812 189.476 95.4946 189.539 95.4516C189.602 95.4086 189.748 95.3883 189.978 95.3906L191.569 95.4067C191.842 95.4095 192.008 95.4493 192.068 95.5262C192.127 95.6032 192.165 95.778 192.183 96.0509L192.669 103.842C192.684 104.082 192.656 104.24 192.584 104.316C192.522 104.38 192.36 104.411 192.098 104.409L189.851 104.386C189.545 104.383 189.357 104.338 189.286 104.25C189.225 104.162 189.161 103.997 189.091 103.757C188.82 102.74 188.362 101.797 187.718 100.929C187.074 100.061 186.26 99.3662 185.277 98.8437C184.293 98.3103 183.14 98.0369 181.817 98.0235C180.297 98.0082 179.016 98.4042 177.974 99.2115C176.943 100.019 176.178 101.151 175.679 102.607C175.19 104.053 175.006 105.741 175.126 107.672C175.247 109.604 175.631 111.293 176.278 112.739C176.937 114.185 177.832 115.312 178.964 116.119C180.096 116.927 181.45 117.338 183.024 117.354C184.412 117.368 185.614 117.097 186.628 116.54C187.642 115.983 188.442 115.233 189.028 114.291C189.613 113.337 189.962 112.283 190.076 111.128C190.113 110.856 190.168 110.676 190.239 110.59C190.32 110.492 190.492 110.445 190.754 110.448L192.935 110.47C193.22 110.473 193.397 110.507 193.466 110.573C193.547 110.639 193.583 110.776 193.574 110.983C193.504 112.836 193.05 114.489 192.212 115.942C191.373 117.384 190.16 118.511 188.572 119.324C186.994 120.137 185.047 120.532 182.729 120.508C180.816 120.489 179.048 120.166 177.424 119.539C175.812 118.912 174.391 118.03 173.162 116.895C171.933 115.759 170.958 114.408 170.237 112.841C169.516 111.264 169.096 109.52 168.977 107.61Z" fill="#442F2C"/>
<path d="M222.5 109.011C222.924 107.224 223.595 105.652 224.512 104.297C225.429 102.941 226.552 101.852 227.882 101.03C229.224 100.201 230.727 99.6881 232.391 99.492C234.067 99.2881 235.864 99.4521 237.782 99.984C239.699 100.516 241.347 101.307 242.726 102.359C244.107 103.4 245.196 104.631 245.992 106.054C246.791 107.466 247.29 109.005 247.49 110.67C247.69 112.336 247.578 114.062 247.153 115.849C246.729 117.636 246.042 119.203 245.094 120.55C244.156 121.9 243.005 122.987 241.641 123.81C240.291 124.626 238.783 125.138 237.117 125.344C235.463 125.543 233.715 125.387 231.871 124.876C229.954 124.344 228.305 123.558 226.923 122.517C225.555 121.469 224.467 120.237 223.657 118.822C222.861 117.399 222.363 115.855 222.163 114.189C221.963 112.524 222.076 110.798 222.5 109.011ZM228.426 110.655C228.103 112.016 227.924 113.316 227.888 114.553C227.852 115.79 227.985 116.91 228.286 117.912C228.598 118.917 229.103 119.771 229.8 120.475C230.508 121.181 231.426 121.691 232.553 122.004C233.775 122.343 234.849 122.385 235.774 122.132C236.709 121.881 237.522 121.392 238.211 120.665C238.911 119.941 239.505 119.023 239.993 117.911C240.492 116.802 240.904 115.567 241.227 114.205C241.553 112.833 241.732 111.534 241.765 110.307C241.801 109.07 241.663 107.948 241.351 106.944C241.05 105.942 240.551 105.089 239.853 104.385C239.166 103.684 238.248 103.175 237.1 102.856C235.973 102.543 234.941 102.512 234.006 102.763C233.081 103.017 232.258 103.503 231.537 104.221C230.827 104.943 230.212 105.855 229.691 106.958C229.174 108.05 228.752 109.282 228.426 110.655Z" fill="#442F2C"/>
<path d="M284.258 119.062L282.395 117.897C282.135 117.734 281.988 117.61 281.953 117.524C281.933 117.434 282.003 117.265 282.163 117.017L283.232 115.364C283.392 115.116 283.534 115.018 283.657 115.069C283.786 115.111 283.967 115.205 284.198 115.35L292.137 120.316C292.424 120.496 292.598 120.65 292.659 120.778C292.728 120.912 292.737 121.059 292.685 121.22C292.639 121.372 292.583 121.569 292.518 121.812L288.754 136.208C288.643 136.641 288.525 137.025 288.4 137.36C288.28 137.685 288.272 137.879 288.374 137.943C288.485 138.013 288.63 137.98 288.807 137.847C288.994 137.719 289.261 137.518 289.607 137.244L302.212 127.354C302.444 127.177 302.606 127.078 302.697 127.058C302.803 127.034 303.01 127.118 303.316 127.31L310.587 131.859C310.865 132.033 311.043 132.17 311.121 132.27C311.215 132.367 311.164 132.567 310.968 132.87L310.077 134.248C309.875 134.56 309.723 134.735 309.62 134.774C309.517 134.812 309.303 134.73 308.978 134.527L307.254 133.449C306.976 133.275 306.78 133.216 306.665 133.273C306.55 133.33 306.411 133.495 306.248 133.767L297.626 148.277C297.481 148.521 297.408 148.695 297.407 148.797C297.406 148.9 297.53 149.029 297.781 149.186L299.908 150.517C300.158 150.673 300.288 150.793 300.299 150.878C300.31 150.962 300.235 151.128 300.075 151.375L299.166 152.78C298.994 153.046 298.851 153.208 298.736 153.265C298.621 153.322 298.424 153.264 298.146 153.09L288.817 147.253C288.557 147.091 288.405 146.944 288.36 146.813C288.324 146.687 288.395 146.486 288.573 146.211L289.437 144.875C289.621 144.591 289.774 144.435 289.896 144.408C290.026 144.386 290.231 144.463 290.509 144.637L292.33 145.776C292.599 145.944 292.805 146.009 292.948 145.969C293.091 145.929 293.237 145.783 293.388 145.529L299.592 135.212C299.867 134.766 300.17 134.317 300.501 133.866C300.832 133.415 301.096 133.026 301.295 132.699C301.503 132.378 301.551 132.182 301.44 132.113C301.338 132.049 301.183 132.087 300.974 132.228C300.772 132.36 300.532 132.551 300.252 132.801C299.973 133.052 299.663 133.31 299.323 133.574L285.343 144.713C285.106 144.899 284.909 145.002 284.754 145.021C284.608 145.045 284.372 144.956 284.048 144.753L282.477 143.77C282.106 143.539 281.901 143.333 281.861 143.153C281.83 142.979 281.851 142.734 281.925 142.419L286.218 125.182C286.303 124.849 286.423 124.472 286.577 124.053C286.74 123.639 286.869 123.268 286.964 122.941C287.065 122.604 287.055 122.398 286.934 122.323C286.851 122.27 286.727 122.341 286.562 122.535C286.413 122.725 286.157 123.081 285.794 123.602L277.545 135.211C277.31 135.554 277.185 135.818 277.17 136.002C277.155 136.186 277.342 136.4 277.732 136.643L279.497 137.748C279.766 137.916 279.914 138.06 279.941 138.18C279.973 138.291 279.903 138.479 279.731 138.745L278.841 140.122C278.651 140.416 278.479 140.56 278.327 140.555C278.174 140.55 277.954 140.457 277.666 140.278L269.922 135.433C269.626 135.247 269.464 135.094 269.437 134.975C269.411 134.855 269.492 134.648 269.682 134.354L270.608 132.922C270.751 132.702 270.871 132.577 270.968 132.547C271.065 132.518 271.225 132.573 271.447 132.712L273.505 133.999C273.83 134.202 274.064 134.252 274.209 134.149C274.353 134.046 274.522 133.855 274.716 133.577L284.531 119.968C284.695 119.735 284.753 119.565 284.705 119.458C284.657 119.351 284.508 119.219 284.258 119.062Z" fill="#442F2C"/>
<path d="M341.516 160.326L340.068 158.695C339.865 158.466 339.777 158.292 339.803 158.174C339.837 158.065 339.97 157.919 340.203 157.737L341.532 156.695C341.782 156.499 341.965 156.418 342.082 156.451C342.215 156.485 342.376 156.609 342.564 156.822L356.911 172.989C357.143 173.251 357.25 173.445 357.23 173.571C357.219 173.69 357.081 173.855 356.814 174.064L351.095 178.545C350.872 178.721 350.719 178.82 350.637 178.842C350.563 178.858 350.429 178.756 350.233 178.535L348.981 177.124C348.821 176.944 348.766 176.8 348.816 176.692C348.866 176.584 348.969 176.461 349.125 176.325C350.067 175.545 350.728 174.826 351.107 174.168C351.486 173.511 351.572 172.834 351.363 172.138C351.17 171.444 350.67 170.643 349.865 169.735L346.175 165.576C345.972 165.347 345.792 165.211 345.636 165.167C345.496 165.124 345.293 165.207 345.026 165.416L340.185 169.21C339.936 169.405 339.785 169.565 339.734 169.688C339.683 169.811 339.745 169.971 339.919 170.167L340.681 171.026C341.399 171.835 342.176 172.267 343.011 172.32C343.861 172.374 344.659 172.171 345.404 171.712C345.615 171.588 345.778 171.517 345.891 171.497C346.005 171.477 346.127 171.541 346.258 171.688L347.042 172.571C347.223 172.776 347.309 172.93 347.3 173.035C347.298 173.147 347.189 173.288 346.974 173.456L340.132 178.818C339.917 178.986 339.753 179.073 339.641 179.078C339.529 179.083 339.382 178.983 339.2 178.779L338.427 177.908C338.282 177.744 338.227 177.608 338.261 177.498C338.303 177.381 338.413 177.226 338.591 177.031C338.995 176.631 339.288 176.173 339.471 175.655C339.661 175.146 339.712 174.62 339.625 174.078C339.545 173.545 339.292 173.037 338.863 172.554L338.112 171.708C337.945 171.52 337.778 171.422 337.611 171.414C337.451 171.415 337.246 171.513 336.997 171.708L331.704 175.856C331.438 176.065 331.307 176.222 331.314 176.328C331.336 176.436 331.463 176.62 331.696 176.882L335.19 180.82C336.126 181.874 336.986 182.58 337.769 182.937C338.568 183.295 339.392 183.336 340.241 183.059C341.105 182.783 342.1 182.219 343.224 181.365C343.481 181.178 343.662 181.078 343.767 181.065C343.872 181.051 344.023 181.155 344.219 181.376L345.351 182.652C345.54 182.865 345.626 183.019 345.609 183.115C345.608 183.213 345.491 183.353 345.259 183.535L338.766 188.623C338.542 188.799 338.383 188.882 338.288 188.873C338.201 188.858 338.064 188.744 337.875 188.532L323.202 171.996C323.013 171.783 322.9 171.623 322.862 171.514C322.831 171.413 322.936 171.268 323.177 171.08L324.777 169.825C324.975 169.67 325.113 169.611 325.189 169.648C325.274 169.678 325.397 169.783 325.556 169.963L327.026 171.619C327.28 171.906 327.462 172.054 327.573 172.064C327.693 172.067 327.899 171.954 328.192 171.725L341.5 161.295C341.741 161.106 341.855 160.955 341.841 160.841C341.835 160.735 341.726 160.563 341.516 160.326Z" fill="#442F2C"/>
</svg>
