<svg width="52" height="27" viewBox="0 0 52 27" fill="none" xmlns="http://www.w3.org/2000/svg">
<path d="M5.3468 25.2456V23.5728C5.3468 23.2776 5.396 23.0917 5.4944 23.0152C5.60373 22.9277 5.79507 22.884 6.0684 22.884H8.4956C8.91107 22.884 9.17347 22.8239 9.2828 22.7036C9.39213 22.5833 9.4468 22.3155 9.4468 21.9V5.0408C9.4468 4.7784 9.40307 4.598 9.3156 4.4996C9.23907 4.4012 9.0696 4.352 8.8072 4.352H7.9052C6.64787 4.352 5.66387 4.52147 4.9532 4.8604C4.25347 5.1884 3.756 5.75693 3.4608 6.566C3.17653 7.37507 3.018 8.5012 2.9852 9.9444C2.97427 10.2724 2.91413 10.4911 2.8048 10.6004C2.7064 10.6988 2.48227 10.748 2.1324 10.748H0.9024C0.6072 10.748 0.4104 10.6933 0.312 10.584C0.224533 10.4747 0.1808 10.2779 0.1808 9.9936V2.3184C0.1808 1.94667 0.2136 1.70067 0.2792 1.5804C0.355733 1.46013 0.5744 1.4 0.9352 1.4H23.1408C23.4251 1.4 23.6055 1.45467 23.682 1.564C23.7695 1.67333 23.8132 1.88107 23.8132 2.1872V10.0264C23.8132 10.3544 23.7585 10.5567 23.6492 10.6332C23.5508 10.7097 23.3321 10.748 22.9932 10.748H21.8288C21.4571 10.748 21.2275 10.6933 21.14 10.584C21.0525 10.4747 21.0033 10.2505 20.9924 9.9116C20.9596 8.4684 20.7956 7.34773 20.5004 6.5496C20.2161 5.74053 19.7241 5.172 19.0244 4.844C18.3356 4.516 17.3625 4.352 16.1052 4.352H15.1704C14.908 4.352 14.7385 4.40667 14.662 4.516C14.5855 4.6144 14.5472 4.7948 14.5472 5.0572V21.7524C14.5472 22.2225 14.5964 22.5287 14.6948 22.6708C14.7932 22.8129 15.072 22.884 15.5312 22.884H17.8272C18.188 22.884 18.4121 22.9387 18.4996 23.048C18.598 23.1573 18.6472 23.3869 18.6472 23.7368V25.1964C18.6472 25.5572 18.5761 25.7813 18.434 25.8688C18.2919 25.9563 18.0513 26 17.7124 26H6.1668C5.8388 26 5.62013 25.9617 5.5108 25.8852C5.40147 25.7977 5.3468 25.5845 5.3468 25.2456ZM26.1651 13.7C26.1651 11.8632 26.4548 10.1685 27.0343 8.616C27.6137 7.06347 28.4556 5.7132 29.5599 4.5652C30.6751 3.40627 32.0199 2.50973 33.5943 1.8756C35.1796 1.23053 36.9672 0.907999 38.9571 0.907999C40.9469 0.907999 42.7345 1.23053 44.3199 1.8756C45.9052 2.50973 47.25 3.40627 48.3543 4.5652C49.4585 5.7132 50.3004 7.06347 50.8799 8.616C51.4593 10.1685 51.7491 11.8632 51.7491 13.7C51.7491 15.5368 51.4429 17.2315 50.8307 18.784C50.2293 20.3365 49.3601 21.6923 48.2231 22.8512C47.0969 23.9992 45.7467 24.8957 44.1723 25.5408C42.6088 26.1749 40.8704 26.492 38.9571 26.492C36.9672 26.492 35.1796 26.1749 33.5943 25.5408C32.0199 24.8957 30.6751 23.9992 29.5599 22.8512C28.4556 21.6923 27.6137 20.3365 27.0343 18.784C26.4548 17.2315 26.1651 15.5368 26.1651 13.7ZM32.3151 13.7C32.3151 15.0995 32.4408 16.4005 32.6923 17.6032C32.9437 18.8059 33.3319 19.85 33.8567 20.7356C34.3924 21.6212 35.0812 22.31 35.9231 22.802C36.7759 23.294 37.7872 23.54 38.9571 23.54C40.2253 23.54 41.2804 23.294 42.1223 22.802C42.9751 22.31 43.6529 21.6212 44.1559 20.7356C44.6697 19.85 45.036 18.8059 45.2547 17.6032C45.4843 16.4005 45.5991 15.0995 45.5991 13.7C45.5991 12.2896 45.4733 10.9885 45.2219 9.7968C44.9704 8.59413 44.5768 7.55 44.0411 6.6644C43.5163 5.7788 42.8329 5.09 41.9911 4.598C41.1601 4.106 40.1488 3.86 38.9571 3.86C37.7872 3.86 36.7759 4.106 35.9231 4.598C35.0812 5.09 34.3924 5.7788 33.8567 6.6644C33.3319 7.55 32.9437 8.59413 32.6923 9.7968C32.4408 10.9885 32.3151 12.2896 32.3151 13.7Z" fill="#442F2C"/>
</svg>
